#!OML:ASF E:\emotionWalksFemale\Project 1\Capture day 1\Session 1\Female1.ASF
:FULLY-SPECIFIED
:DEGREES
1882
root 28.1316 15.5325 -11.0401 -1.24763 -2.23476 358.606
lowerback 5.98826 1.07167 -0.512968
upperback -3.46354 1.34346 -0.694342
thorax -6.97696 0.66625 -0.598719
lowerneck -6.92251 -6.51366 -9.01513
upperneck 17.8949 -9.39821 8.89798
head 7.46884 -4.41233 3.5505
rclavicle 1.38155e-014 -3.18055e-015
rhumerus -44.3282 7.37564 -88.6097
rradius 43.209
rwrist 9.92084
rhand -4.66434 -49.8698
rfingers 7.12502
rthumb 21.1159 -438.74
lclavicle 1.38155e-014 -3.18055e-015
lhumerus -54.2858 15.7101 58.5148
lradius 35.1527
lwrist -19.0511
lhand -6.67021 -25.0216
lfingers 7.12502
lthumb 19.188 4.05186
rfemur 10.2781 7.3157 31.2258
rtibia 30.3297
rfoot -2.76727 -16.8903
rtoes 7.20988
lfemur -19.6483 -24.6372 -16.133
ltibia 25.1766
lfoot -12.3571 19.7906
ltoes -17.6179
1883
root 28.1728 15.546 -10.9046 -1.32025 -2.09453 359.289
lowerback 6.27997 1.12807 -0.683608
upperback -3.4429 1.38491 -0.927834
thorax -7.12215 0.687979 -0.7589
lowerneck -6.79589 -6.53732 -9.69119
upperneck 17.0916 -9.44201 9.73209
head 7.26328 -4.42191 3.93333
rclavicle 2.28602e-014 -4.37326e-015
rhumerus -44.5792 6.88416 -88.259
rradius 42.8353
rwrist 10.2833
rhand -4.79488 -49.8938
rfingers 7.12502
rthumb 20.9905 -438.778
lclavicle 2.28602e-014 -4.37326e-015
lhumerus -53.6439 15.7899 58.827
lradius 34.9936
lwrist -19.3226
lhand -6.87403 -24.569
lfingers 7.12502
lthumb 18.992 4.52377
rfemur 9.02964 5.95877 29.7866
rtibia 33.3252
rfoot -1.71427 -15.7078
rtoes 8.69821
lfemur -18.7498 -24.1307 -17.458
ltibia 24.7695
lfoot -12.0397 19.5152
ltoes -21.1346
1884
root 28.1951 15.5557 -10.7624 -1.48257 -2.18166 359.471
lowerback 6.25186 1.11731 -0.804863
upperback -3.3089 1.36047 -0.934604
thorax -6.96618 0.681734 -0.69186
lowerneck -7.57259 -6.82596 -9.87614
upperneck 17.6728 -9.78719 9.65044
head 7.63484 -4.57567 3.87678
rclavicle -1.07344e-014 -7.95139e-016
rhumerus -44.6198 6.65704 -88.0412
rradius 42.3431
rwrist 10.8524
rhand -4.7311 -49.9691
rfingers 7.12502
rthumb 21.0518 -438.846
lclavicle -1.07344e-014 -7.95139e-016
lhumerus -53.2309 15.9658 59.0247
lradius 35.0502
lwrist -19.2848
lhand -6.97349 -24.4444
lfingers 7.12502
lthumb 18.8963 4.65773
rfemur 7.81501 4.98777 29.1036
rtibia 36.3991
rfoot -0.501036 -14.9669
rtoes 10.0455
lfemur -17.6786 -23.6371 -18.13
ltibia 24.2977
lfoot -11.4284 19.7285
ltoes -22.9374
1885
root 28.2195 15.5715 -10.6303 -1.46864 -2.24961 359.617
lowerback 6.36295 1.04481 -0.884119
upperback -3.45896 1.25222 -0.9417
thorax -7.19244 0.631848 -0.646716
lowerneck -7.34901 -6.74666 -9.84016
upperneck 17.6619 -9.68891 9.58773
head 7.5753 -4.53906 3.868
rclavicle 7.55382e-015 -5.56597e-015
rhumerus -44.9118 6.66358 -87.9873
rradius 41.8417
rwrist 10.9583
rhand -4.46553 -50.3563
rfingers 7.12502
rthumb 21.3069 -439.205
lclavicle 7.55382e-015 -5.56597e-015
lhumerus -53.3252 15.7406 59.2186
lradius 35.3877
lwrist -18.9648
lhand -7.24503 -24.8011
lfingers 7.12502
lthumb 18.6351 4.32634
rfemur 6.24018 4.06899 28.4152
rtibia 39.516
rfoot 0.867828 -14.2577
rtoes 9.08831
lfemur -16.8079 -23.1061 -18.6853
ltibia 23.7427
lfoot -10.8579 19.5639
ltoes -24.1011
1886
root 28.244 15.5949 -10.5017 -1.31935 -2.24678 359.89
lowerback 5.80614 0.981683 -1.12429
upperback -3.30806 1.15742 -0.935139
thorax -6.7156 0.596899 -0.4793
lowerneck -7.00685 -6.7569 -9.88802
upperneck 17.0846 -9.68225 9.61522
head 7.32939 -4.55227 3.89396
rclavicle 9.64106e-015 -1.82882e-014
rhumerus -44.7889 6.78828 -87.8184
rradius 41.3495
rwrist 11.1192
rhand -4.25485 -50.4327
rfingers 7.12502
rthumb 21.5092 -439.258
lclavicle 9.64106e-015 -1.82882e-014
lhumerus -52.8347 15.696 59.7278
lradius 35.7106
lwrist -18.6329
lhand -7.45397 -24.6689
lfingers 7.12502
lthumb 18.4342 4.47766
rfemur 4.38239 3.16935 27.6076
rtibia 42.7333
rfoot 2.46642 -13.42
rtoes 6.35106
lfemur -16.1829 -22.5693 -19.3156
ltibia 23.286
lfoot -10.6016 19.2531
ltoes -24.8437
1887
root 28.269 15.6231 -10.3774 -1.25599 -2.23128 360.233
lowerback 5.98262 0.993523 -1.32111
upperback -3.38286 1.14834 -0.983708
thorax -6.90032 0.600429 -0.423517
lowerneck -6.27057 -6.72042 -10.3744
upperneck 15.947 -9.65821 10.2803
head 6.88677 -4.55338 4.21431
rclavicle -1.68967e-015 1.19271e-014
rhumerus -45.022 6.71664 -87.5529
rradius 40.9491
rwrist 11.3734
rhand -3.9437 -50.5163
rfingers 7.12502
rthumb 21.808 -439.308
lclavicle -1.68967e-015 1.19271e-014
lhumerus -52.3531 15.4152 60.2877
lradius 35.8397
lwrist -18.3441
lhand -7.41242 -24.318
lfingers 7.12502
lthumb 18.4741 4.82475
rfemur 2.59537 2.30169 26.7792
rtibia 45.9801
rfoot 4.16758 -12.6233
rtoes 6.73604
lfemur -15.3738 -21.9844 -20.0556
ltibia 22.6681
lfoot -9.97524 19.1207
ltoes -25.8009
1888
root 28.2979 15.6232 -10.2588 -1.30538 -2.27369 360.637
lowerback 6.14886 0.905488 -1.57469
upperback -3.41463 0.997155 -1.07628
thorax -7.03302 0.535773 -0.36378
lowerneck -6.67137 -7.00083 -10.1769
upperneck 16.3314 -9.97667 9.75498
head 7.08079 -4.71754 3.96346
rclavicle -4.82053e-015 -3.57812e-015
rhumerus -45.234 6.95072 -87.5589
rradius 40.5613
rwrist 11.546
rhand -3.78005 -50.5353
rfingers 7.12502
rthumb 21.9652 -439.308
lclavicle -4.82053e-015 -3.57812e-015
lhumerus -52.0122 15.1357 60.6963
lradius 35.9853
lwrist -17.5808
lhand -7.22937 -23.506
lfingers 7.12502
lthumb 18.6502 5.61991
rfemur 0.851136 1.32597 25.8313
rtibia 49.264
rfoot 5.52048 -11.8759
rtoes 9.11041
lfemur -14.4363 -21.4738 -20.8952
ltibia 21.9392
lfoot -9.40085 19.06
ltoes -27.6502
1889
root 28.3247 15.6341 -10.1345 -1.38149 -2.36498 361.133
lowerback 6.47552 0.934484 -1.79151
upperback -3.40802 0.996699 -1.23459
thorax -7.21675 0.541915 -0.414154
lowerneck -7.04538 -7.13953 -10.2142
upperneck 16.4327 -10.1253 9.67674
head 7.19439 -4.7842 3.91514
rclavicle 1.72694e-014 -1.63003e-014
rhumerus -45.408 6.85141 -87.3589
rradius 40.2568
rwrist 11.695
rhand -3.8476 -50.0658
rfingers 7.12502
rthumb 21.9003 -438.846
lclavicle 1.72694e-014 -1.63003e-014
lhumerus -51.3932 14.6232 61.3618
lradius 36.153
lwrist -16.6896
lhand -7.16046 -22.9712
lfingers 7.12502
lthumb 18.7165 6.14838
rfemur -0.853186 0.468639 24.8423
rtibia 52.3806
rfoot 6.55138 -11.3477
rtoes 9.26418
lfemur -13.3861 -21.3325 -21.816
ltibia 21.1324
lfoot -9.52438 19.2402
ltoes -28.7921
1890
root 28.3454 15.6488 -10.0089 -1.48091 -2.35936 361.597
lowerback 6.62519 0.846481 -2.17534
upperback -3.47626 0.827481 -1.35411
thorax -7.38026 0.475069 -0.306549
lowerneck -6.98793 -7.13264 -10.1874
upperneck 16.4154 -10.1374 9.74457
head 7.1818 -4.78563 3.93375
rclavicle -1.2424e-015 3.97569e-015
rhumerus -45.7628 6.83963 -87.3074
rradius 39.9442
rwrist 11.7159
rhand -3.73258 -49.8802
rfingers 7.12502
rthumb 22.0107 -438.648
lclavicle -1.2424e-015 3.97569e-015
lhumerus -51.1251 14.2706 61.6548
lradius 36.2615
lwrist -16.2318
lhand -7.35011 -23.8093
lfingers 7.12502
lthumb 18.5341 5.32774
rfemur -2.46471 -0.402716 23.9743
rtibia 55.2865
rfoot 7.13803 -10.9477
rtoes 8.70889
lfemur -12.3127 -21.3178 -22.6909
ltibia 20.3338
lfoot -9.63641 19.3951
ltoes -29.2526
1891
root 28.3646 15.6609 -9.88606 -1.58414 -2.4055 362.001
lowerback 6.59223 0.77664 -2.46445
upperback -3.36596 0.703382 -1.44511
thorax -7.24533 0.424423 -0.221643
lowerneck -6.83314 -7.17699 -10.5096
upperneck 16.0751 -10.1999 10.0636
head 7.08562 -4.81891 4.08849
rclavicle 8.19987e-015 -2.82274e-014
rhumerus -45.7814 6.98009 -87.257
rradius 39.671
rwrist 11.7652
rhand -3.61182 -50.2356
rfingers 7.12502
rthumb 22.1267 -438.99
lclavicle 8.19987e-015 -2.82274e-014
lhumerus -50.564 14.0768 61.9921
lradius 36.3377
lwrist -16.0051
lhand -7.48438 -23.9198
lfingers 7.12502
lthumb 18.4049 5.22953
rfemur -3.98182 -1.20756 23.2286
rtibia 57.8946
rfoot 7.24158 -10.7454
rtoes 9.24434
lfemur -11.1775 -21.1251 -23.4917
ltibia 19.3823
lfoot -9.48898 19.3579
ltoes -29.2842
1892
root 28.3857 15.6724 -9.76515 -1.7055 -2.66363 362.484
lowerback 6.63746 0.762025 -2.78671
upperback -3.22898 0.648255 -1.53777
thorax -7.12845 0.408481 -0.12975
lowerneck -6.28453 -7.38864 -10.6385
upperneck 15.2136 -10.4631 10.1115
head 6.75246 -4.97417 4.11398
rclavicle -4.64659e-015 -1.11319e-014
rhumerus -45.7548 7.24519 -87.1958
rradius 39.5262
rwrist 11.9182
rhand -3.71337 -50.3714
rfingers 7.12502
rthumb 22.0292 -439.137
lclavicle -4.64659e-015 -1.11319e-014
lhumerus -49.881 13.8946 62.4476
lradius 36.2617
lwrist -15.9565
lhand -8.3786 -24.533
lfingers 7.12502
lthumb 17.5445 4.69538
rfemur -5.46953 -1.71729 22.462
rtibia 60.2355
rfoot 6.88039 -10.9959
rtoes 10.2343
lfemur -10.0396 -20.9846 -24.3713
ltibia 18.4898
lfoot -9.86786 19.515
ltoes -27.353
1893
root 28.4048 15.6827 -9.64914 -1.76655 -2.88129 362.937
lowerback 6.69556 0.749835 -3.15504
upperback -3.11436 0.59261 -1.60614
thorax -7.04359 0.394887 0.0129022
lowerneck -6.43363 -7.61359 -10.7581
upperneck 15.0862 -10.7385 10.1281
head 6.77705 -5.10829 4.10336
rclavicle 2.75814e-015 2.40529e-014
rhumerus -45.7088 7.38032 -87.0388
rradius 39.3737
rwrist 12.1669
rhand -3.75155 -50.2226
rfingers 7.12502
rthumb 21.9925 -438.992
lclavicle 2.75814e-015 2.40529e-014
lhumerus -48.9547 13.7775 62.8868
lradius 35.7657
lwrist -16.0779
lhand -8.56642 -24.1582
lfingers 7.12502
lthumb 17.3638 5.08622
rfemur -6.99361 -2.09941 21.8345
rtibia 62.3227
rfoot 5.95341 -11.7002
rtoes 11.2995
lfemur -9.03879 -20.8735 -25.1727
ltibia 17.6745
lfoot -10.2725 19.6688
ltoes -25.6486
1894
root 28.4189 15.6909 -9.53932 -1.77377 -3.06072 363.233
lowerback 7.10582 0.735512 -3.43017
upperback -3.29034 0.518704 -1.63388
thorax -7.47124 0.376519 0.139093
lowerneck -5.36071 -7.47511 -11.1782
upperneck 14.1286 -10.6382 10.8418
head 6.33604 -5.07844 4.45283
rclavicle 1.59028e-015 1.27222e-014
rhumerus -46.2866 7.62241 -87.0286
rradius 39.4142
rwrist 11.9989
rhand -3.66115 -50.2596
rfingers 7.12502
rthumb 22.0793 -439.019
lclavicle 1.59028e-015 1.27222e-014
lhumerus -48.3012 13.6855 63.1093
lradius 35.1937
lwrist -16.7433
lhand -9.07373 -23.6332
lfingers 7.12502
lthumb 16.8755 5.65353
rfemur -8.57376 -2.35499 21.5068
rtibia 64.1666
rfoot 4.7801 -12.5096
rtoes 13.0356
lfemur -8.15883 -20.5372 -25.7489
ltibia 16.8767
lfoot -10.1587 19.4506
ltoes -24.7212
1895
root 28.4318 15.6961 -9.43378 -1.79055 -3.2278 363.682
lowerback 6.9496 0.648471 -3.92405
upperback -3.0445 0.368642 -1.64115
thorax -7.11936 0.319618 0.433513
lowerneck -5.76362 -7.74682 -11.1584
upperneck 14.0529 -10.9153 10.5092
head 6.39646 -5.21944 4.29769
rclavicle -9.29318e-015 4.37326e-015
rhumerus -46.1757 8.11077 -86.9749
rradius 39.547
rwrist 11.5885
rhand -3.55543 -50.4986
rfingers 7.12502
rthumb 22.1808 -439.246
lclavicle -9.29318e-015 4.37326e-015
lhumerus -46.9123 14.6676 63.1628
lradius 34.245
lwrist -18.4512
lhand -9.4607 -23.4089
lfingers 7.12502
lthumb 16.5029 5.90922
rfemur -10.1646 -2.54402 21.044
rtibia 65.7278
rfoot 3.66454 -12.8654
rtoes 13.1454
lfemur -7.41921 -20.1878 -26.4913
ltibia 16.3585
lfoot -10.5277 19.0293
ltoes -21.7417
1896
root 28.4468 15.6964 -9.33315 -1.784 -3.34844 364.247
lowerback 7.3719 0.601116 -4.3933
upperback -3.19333 0.218412 -1.76123
thorax -7.52237 0.27246 0.583727
lowerneck -4.82023 -7.79872 -11.6961
upperneck 13.0666 -11.0425 11.1645
head 6.00554 -5.30676 4.61936
rclavicle 8.82107e-016 -4.57205e-015
rhumerus -46.5733 8.25582 -86.8912
rradius 39.6681
rwrist 11.788
rhand -3.67182 -50.7498
rfingers 7.12502
rthumb 22.0691 -439.51
lclavicle 8.82107e-016 -4.57205e-015
lhumerus -46.1476 14.5873 63.3173
lradius 33.4663
lwrist -19.6051
lhand -9.4664 -25.0001
lfingers 7.12502
lthumb 16.4974 4.31851
rfemur -11.7717 -2.76215 20.4424
rtibia 67.0201
rfoot 2.57275 -12.9355
rtoes 12.5529
lfemur -6.80736 -20.1116 -27.3614
ltibia 16.0574
lfoot -11.3161 18.8639
ltoes -19.6334
